<?xml version="1.0" encoding="UTF-8" standalone="no"?>
<svg width="18px" height="16px" viewBox="0 0 18 16" version="1.1" xmlns="http://www.w3.org/2000/svg" xmlns:xlink="http://www.w3.org/1999/xlink">
    <title>topcoat-find-in-project-20</title>
    <defs></defs>
    <g id="Page 1" stroke="none" stroke-width="1" fill="none" fill-rule="evenodd" opacity="0.7">
        <path d="M0,14 L0,2 C0,0.5 0.5,0 2,0 L7,0 C8.53,0 9,0.47 9,2 L16,2 C17.56,2 18,2.5 18,4 L18,14 C18,15.53 17.53,16 16,16 L2,16 C0.53,16 0,15.5 0,14 Z M5,8 C5,9.65340909 6.34362934,11 8,11 C9.65637066,11 11,9.65340909 11,8 C11,6.34090909 9.65637066,5 8,5 C6.34362934,5 5,6.34090909 5,8 Z M6,8.00277393 C6,6.89875173 6.89830508,6 8,6 C9.10734463,6 10,6.89875173 10,8.00277393 C10,9.10679612 9.10734463,10 8,10 C6.89830508,10 6,9.10679612 6,8.00277393 L6,8.00277393 Z M10,10.9628319 L11.6042965,12.8035398 C11.8632861,13.0654867 12.0287516,13.0654867 12.2877412,12.8035398 L12.8057204,12.2867257 C13.0575158,12.0318584 13.0719041,11.8690265 12.8057204,11.6 L10.9568226,10 L10,10.9628319 L10,10.9628319 Z M10,10.9628319" id="Shape" fill="#010101"></path>
    </g>
</svg>
