<?xml version="1.0" encoding="UTF-8" standalone="no"?>
<svg width="18px" height="18px" viewBox="0 0 18 18" version="1.1" xmlns="http://www.w3.org/2000/svg" xmlns:xlink="http://www.w3.org/1999/xlink">
    <title>topcoat-search-20</title>
    <defs></defs>
    <g id="Page 1" stroke="none" stroke-width="1" fill="none" fill-rule="evenodd" opacity="0.7">
        <path d="M7.17,14.609 C11.13,14.609 14.34,11.339 14.34,7.31 C14.34,3.27 11.13,0 7.17,0 C3.21,0 0,3.27 0,7.31 C0,11.34 3.21,14.609 7.17,14.609 Z M2.27,7.31 C2.27,4.55 4.47,2.31 7.17,2.31 C9.88,2.31 12.07,4.55 12.07,7.31 C12.07,10.07 9.88,12.3 7.17,12.3 C4.47,12.3 2.27,10.07 2.27,7.31 L2.27,7.31 Z M12.221,14.01 L15.311,17.62 C15.811,18.12 16.13,18.13 16.63,17.62 L17.62,16.609 C18.109,16.109 18.141,15.79 17.62,15.259 L14.07,12.129 L12.221,14.01 L12.221,14.01 Z M12.221,14.01" id="Shape" fill="#000000"></path>
    </g>
</svg>
